<svg width="87" height="87" viewBox="0 0 87 87" fill="none" xmlns="http://www.w3.org/2000/svg">
<path d="M68.8642 72.5C37.9393 72.5435 14.4674 48.7925 14.5 18.1359C14.5 16.1312 16.124 14.5 18.125 14.5H27.695C29.4894 14.5 31.0155 15.8195 31.2802 17.5958C31.9113 21.8553 33.1504 26.0023 34.9595 29.9099L35.3329 30.7146C35.5837 31.2562 35.6377 31.8683 35.4855 32.4453C35.3333 33.0224 34.9844 33.5282 34.4992 33.8756C31.5339 35.9926 30.4029 40.252 32.712 43.5725C35.6192 47.7533 39.2477 51.383 43.4275 54.2916C46.7517 56.5971 51.011 55.4661 53.1244 52.5045C53.4714 52.0178 53.9777 51.6676 54.5556 51.5147C55.1335 51.3618 55.7467 51.4157 56.289 51.6671L57.0902 52.0369C60.9979 53.8494 65.1449 55.0891 69.4043 55.7199C71.1805 55.9845 72.5 57.5106 72.5 59.3086V68.875C72.5 69.3513 72.4062 69.823 72.2238 70.2631C72.0414 70.7031 71.774 71.1029 71.437 71.4395C71.1 71.7762 70.7 72.0431 70.2597 72.2251C69.8195 72.4071 69.3478 72.5005 68.8714 72.5H68.8642Z" fill="white"/>
</svg>
