<svg width="45" height="45" viewBox="0 0 45 45" fill="none" xmlns="http://www.w3.org/2000/svg">
<path d="M22.5 16.875C19.4512 16.875 16.875 19.4512 16.875 22.5C16.875 25.5488 19.4512 28.125 22.5 28.125C25.5488 28.125 28.125 25.5488 28.125 22.5C28.125 19.4512 25.5488 16.875 22.5 16.875Z" fill="#8696A0"/>
<path d="M37.5 9.375H32.6512L27.5756 4.29938C27.4018 4.12492 27.1952 3.98657 26.9677 3.89229C26.7402 3.798 26.4963 3.74964 26.25 3.75H18.75C18.5037 3.74964 18.2598 3.798 18.0323 3.89229C17.8048 3.98657 17.5982 4.12492 17.4244 4.29938L12.3487 9.375H7.5C5.43187 9.375 3.75 11.0569 3.75 13.125V33.75C3.75 35.8181 5.43187 37.5 7.5 37.5H37.5C39.5681 37.5 41.25 35.8181 41.25 33.75V13.125C41.25 11.0569 39.5681 9.375 37.5 9.375ZM22.5 31.875C17.4187 31.875 13.125 27.5812 13.125 22.5C13.125 17.4187 17.4187 13.125 22.5 13.125C27.5813 13.125 31.875 17.4187 31.875 22.5C31.875 27.5812 27.5813 31.875 22.5 31.875Z" fill="#8696A0"/>
</svg>
