<svg width="16" height="16" viewBox="0 0 16 16" fill="none" xmlns="http://www.w3.org/2000/svg">
<path d="M9.34894 5.21529C9.49931 5.09175 9.69941 5.02345 9.90701 5.02481C10.1146 5.02617 10.3135 5.09707 10.4617 5.22256C10.6099 5.34805 10.6958 5.51831 10.7013 5.69741C10.7067 5.87652 10.6314 6.05045 10.4911 6.18253L6.23205 10.7792C6.15881 10.8473 6.07042 10.9019 5.97216 10.9398C5.8739 10.9777 5.76779 10.9982 5.66017 10.9999C5.55256 11.0016 5.44564 10.9846 5.34582 10.9498C5.246 10.9151 5.15533 10.8633 5.07922 10.7976L2.2548 8.36018C2.17615 8.29693 2.11306 8.22066 2.06931 8.13591C2.02555 8.05117 2.00202 7.95968 2.00012 7.86692C1.99823 7.77415 2.018 7.68201 2.05827 7.59598C2.09853 7.50995 2.15846 7.43181 2.23448 7.3662C2.3105 7.3006 2.40106 7.24888 2.50074 7.21413C2.60043 7.17938 2.7072 7.16232 2.8147 7.16395C2.92219 7.16559 3.0282 7.18589 3.1264 7.22366C3.2246 7.26142 3.31299 7.31586 3.38628 7.38374L5.62148 9.31176L9.32759 5.23556C9.33424 5.22845 9.34137 5.22168 9.34894 5.21529ZM8.36691 9.95013L9.34894 10.7976C9.42503 10.8632 9.51564 10.9148 9.61536 10.9495C9.71508 10.9841 9.82186 11.0011 9.92935 10.9994C10.0368 10.9977 10.1428 10.9773 10.241 10.9395C10.3392 10.9016 10.4275 10.8471 10.5007 10.7792L14.7619 6.18253C14.8384 6.11731 14.899 6.03945 14.9399 5.95359C14.9808 5.86774 15.0012 5.77565 14.9999 5.68283C14.9987 5.59 14.9758 5.49835 14.9326 5.41334C14.8894 5.32833 14.8267 5.25171 14.7484 5.18805C14.6702 5.12439 14.5778 5.075 14.4769 5.04283C14.376 5.01065 14.2686 4.99635 14.1612 5.00079C14.0537 5.00522 13.9484 5.0283 13.8516 5.06863C13.7547 5.10897 13.6682 5.16574 13.5973 5.23556L9.89013 9.31176L9.37243 8.86407L8.36584 9.95013H8.36691Z" fill="#23CAFF"/>
</svg>
