<svg width="35" height="33" viewBox="0 0 35 33" fill="none" xmlns="http://www.w3.org/2000/svg">
<path d="M5.92199 -1.67227e-06C4.4407 -1.67227e-06 3.01848 0.598078 1.88499 1.70495C-0.628234 4.16478 -0.628233 8.16557 1.88441 10.6238L21.4813 30.9257C24.5389 33.9134 29.2225 33.6449 32.6404 30.3062C34.1719 28.8094 35.0313 26.6516 34.9991 24.3835C34.9669 22.1394 34.0682 19.9917 32.5323 18.4907L17.7216 3.10848C17.3093 2.67752 16.6181 2.65785 16.1781 3.0621C15.7391 3.46693 15.7178 4.14234 16.1317 4.5717L30.9648 19.9773C32.125 21.1114 32.7906 22.72 32.8151 24.4134C32.8397 26.1077 32.2123 27.7052 31.0963 28.7966C28.9997 30.8463 25.5861 31.9196 23.0483 29.438L3.4519 9.13611C1.76695 7.48809 1.7675 4.84126 3.43006 3.21508C4.20971 2.4539 5.13517 2.08317 6.1207 2.14127C7.09585 2.19933 8.0983 2.68724 8.9435 3.51393L24.5361 19.7047C25.1012 20.2571 26.2368 21.6111 25.081 22.7414C24.4263 23.3811 23.9666 23.3417 23.8154 23.3295C23.3835 23.2922 22.879 23.0008 22.3554 22.4884L10.6192 10.3112C10.2048 9.88137 9.51298 9.86059 9.0756 10.266C8.63607 10.6697 8.61587 11.3462 9.02919 11.7744L20.7868 23.9745C21.7111 24.8806 22.6563 25.3717 23.6183 25.4559C24.369 25.5209 25.4856 25.3648 26.6246 24.2504C28.315 22.5982 28.1048 20.1745 26.1031 18.2175L10.5105 2.02784C9.26567 0.809113 7.76251 0.101206 6.25447 0.0106863C6.14363 0.00322908 6.03279 3.28707e-05 5.92196 3.28707e-05L5.92199 -1.67227e-06Z" fill="#8696A0"/>
</svg>
