<svg width="30" height="30" viewBox="0 0 30 30" fill="none" xmlns="http://www.w3.org/2000/svg">
<path fill-rule="evenodd" clip-rule="evenodd" d="M15 30C6.7155 30 0 23.2845 0 15C0 6.7155 6.7155 0 15 0C23.2845 0 30 6.7155 30 15C30 23.2845 23.2845 30 15 30ZM21 16.5C21 18.0913 20.3679 19.6174 19.2426 20.7426C18.1174 21.8679 16.5913 22.5 15 22.5C13.4087 22.5 11.8826 21.8679 10.7574 20.7426C9.63214 19.6174 9 18.0913 9 16.5H21ZM15 27C18.1826 27 21.2348 25.7357 23.4853 23.4853C25.7357 21.2348 27 18.1826 27 15C27 11.8174 25.7357 8.76516 23.4853 6.51472C21.2348 4.26428 18.1826 3 15 3C11.8174 3 8.76516 4.26428 6.51472 6.51472C4.26428 8.76516 3 11.8174 3 15C3 18.1826 4.26428 21.2348 6.51472 23.4853C8.76516 25.7357 11.8174 27 15 27V27ZM11.25 13.5C11.8467 13.5 12.419 13.2629 12.841 12.841C13.2629 12.419 13.5 11.8467 13.5 11.25C13.5 10.6533 13.2629 10.081 12.841 9.65901C12.419 9.23705 11.8467 9 11.25 9C10.6533 9 10.081 9.23705 9.65901 9.65901C9.23705 10.081 9 10.6533 9 11.25C9 11.8467 9.23705 12.419 9.65901 12.841C10.081 13.2629 10.6533 13.5 11.25 13.5ZM18.75 13.5C19.3467 13.5 19.919 13.2629 20.341 12.841C20.763 12.419 21 11.8467 21 11.25C21 10.6533 20.763 10.081 20.341 9.65901C19.919 9.23705 19.3467 9 18.75 9C18.1533 9 17.581 9.23705 17.159 9.65901C16.7371 10.081 16.5 10.6533 16.5 11.25C16.5 11.8467 16.7371 12.419 17.159 12.841C17.581 13.2629 18.1533 13.5 18.75 13.5Z" fill="#8696A0"/>
</svg>
