<svg width="75" height="67" viewBox="0 0 75 67" fill="none" xmlns="http://www.w3.org/2000/svg">
<path fill-rule="evenodd" clip-rule="evenodd" d="M74.75 33.5C74.75 34.7349 74.2595 35.9193 73.3862 36.7925C72.513 37.6657 71.3287 38.1563 70.0938 38.1563H16.1465L36.1404 58.1409C36.5733 58.5738 36.9167 59.0878 37.151 59.6534C37.3853 60.219 37.5059 60.8253 37.5059 61.4375C37.5059 62.0498 37.3853 62.656 37.151 63.2216C36.9167 63.7873 36.5733 64.3012 36.1404 64.7342C35.7075 65.1671 35.1935 65.5105 34.6279 65.7448C34.0623 65.9791 33.456 66.0997 32.8438 66.0997C32.2315 66.0997 31.6253 65.9791 31.0597 65.7448C30.494 65.5105 29.9801 65.1671 29.5471 64.7342L1.60965 36.7967C1.17603 36.3641 0.831995 35.8503 0.59726 35.2846C0.362525 34.7189 0.241699 34.1125 0.241699 33.5C0.241699 32.8876 0.362525 32.2811 0.59726 31.7154C0.831995 31.1497 1.17603 30.6359 1.60965 30.2034L29.5471 2.2659C30.4215 1.39158 31.6073 0.900391 32.8438 0.900391C34.0802 0.900391 35.2661 1.39158 36.1404 2.2659C37.0147 3.14022 37.5059 4.32605 37.5059 5.56252C37.5059 6.799 37.0147 7.98483 36.1404 8.85915L16.1465 28.8438H70.0938C71.3287 28.8438 72.513 29.3343 73.3862 30.2076C74.2595 31.0808 74.75 32.2651 74.75 33.5Z" fill="white"/>
</svg>
