<svg width="67" height="67" viewBox="0 0 67 67" fill="none" xmlns="http://www.w3.org/2000/svg">
<path d="M33.5 20.9375C35.8127 20.9375 37.6875 19.0627 37.6875 16.75C37.6875 14.4373 35.8127 12.5625 33.5 12.5625C31.1873 12.5625 29.3125 14.4373 29.3125 16.75C29.3125 19.0627 31.1873 20.9375 33.5 20.9375Z" fill="white"/>
<path d="M33.5 37.6875C35.8127 37.6875 37.6875 35.8127 37.6875 33.5C37.6875 31.1873 35.8127 29.3125 33.5 29.3125C31.1873 29.3125 29.3125 31.1873 29.3125 33.5C29.3125 35.8127 31.1873 37.6875 33.5 37.6875Z" fill="white"/>
<path d="M33.5 54.4375C35.8127 54.4375 37.6875 52.5627 37.6875 50.25C37.6875 47.9373 35.8127 46.0625 33.5 46.0625C31.1873 46.0625 29.3125 47.9373 29.3125 50.25C29.3125 52.5627 31.1873 54.4375 33.5 54.4375Z" fill="white"/>
</svg>
