<svg width="27" height="39" viewBox="0 0 27 39" fill="none" xmlns="http://www.w3.org/2000/svg">
<path d="M25.5536 17.5502C25.9031 17.5502 26.2408 17.6782 26.5042 17.9105C26.7676 18.1428 26.939 18.4637 26.9865 18.8138L27 19.0127V19.9877C27.0003 23.3098 25.7583 26.5091 23.5231 28.9438C21.2878 31.3786 18.2248 32.8687 14.9484 33.1153L14.9464 37.5379C14.9463 37.9085 14.8071 38.2652 14.5569 38.5359C14.3067 38.8067 13.9642 38.9713 13.5986 38.9966C13.233 39.0219 12.8715 38.9058 12.5872 38.672C12.3029 38.4382 12.117 38.1039 12.0671 37.7368L12.0536 37.5379V33.1153C8.85506 32.8751 5.85682 31.4495 3.63384 29.1118C1.41085 26.7741 0.119597 23.6889 0.00771465 20.4479L0 19.9877V19.0127C0.000112325 18.6422 0.139328 18.2855 0.389518 18.0147C0.639708 17.744 0.982219 17.5793 1.34784 17.5541C1.71346 17.5288 2.07493 17.6448 2.35922 17.8786C2.6435 18.1125 2.8294 18.4467 2.87936 18.8138L2.89286 19.0127V19.9877C2.89264 22.6301 3.90289 25.1703 5.71231 27.0769C7.52173 28.9835 9.99016 30.1088 12.6013 30.2175L13.0179 30.2253H13.9821C16.5955 30.2256 19.1077 29.2041 20.9933 27.3745C22.8789 25.545 23.9919 23.0491 24.0994 20.4089L24.1071 19.9877V19.0127C24.1071 18.6248 24.2595 18.2528 24.5308 17.9786C24.802 17.7043 25.17 17.5502 25.5536 17.5502V17.5502ZM13.5 0C15.546 0 17.5081 0.821793 18.9548 2.28459C20.4015 3.74739 21.2143 5.73138 21.2143 7.80009V19.5002C21.2143 21.5689 20.4015 23.5529 18.9548 25.0157C17.5081 26.4785 15.546 27.3003 13.5 27.3003C11.454 27.3003 9.49189 26.4785 8.04518 25.0157C6.59847 23.5529 5.78571 21.5689 5.78571 19.5002V7.80009C5.78571 5.73138 6.59847 3.74739 8.04518 2.28459C9.49189 0.821793 11.454 0 13.5 0V0Z" fill="white"/>
</svg>
