<svg width="85" height="85" viewBox="0 0 85 85" fill="none" xmlns="http://www.w3.org/2000/svg">
<path d="M76.2638 22.0765L61.3888 30.4584V18.889C61.3888 17.6366 60.8913 16.4354 60.0057 15.5499C59.1201 14.6643 57.919 14.1667 56.6666 14.1667H14.1666C11.6618 14.1667 9.25956 15.1618 7.48838 16.933C5.7172 18.7041 4.72217 21.1064 4.72217 23.6112V61.389C4.72217 63.8938 5.7172 66.296 7.48838 68.0672C9.25956 69.8384 11.6618 70.8334 14.1666 70.8334H56.6666C57.919 70.8334 59.1201 70.3359 60.0057 69.4503C60.8913 68.5647 61.3888 67.3636 61.3888 66.1112V54.4945L76.2638 62.8765C76.6455 63.1258 77.086 63.2703 77.5412 63.2955C77.9963 63.3206 78.4501 63.2256 78.8569 63.0198C79.2637 62.814 79.6091 62.5048 79.8585 62.1232C80.1079 61.7416 80.2525 61.3011 80.2777 60.8459V24.0834C80.2486 23.6303 80.1012 23.1927 79.8503 22.8143C79.5993 22.4359 79.2535 22.1299 78.8474 21.9268C78.4412 21.7237 77.9889 21.6307 77.5356 21.657C77.0823 21.6832 76.6438 21.8279 76.2638 22.0765V22.0765Z" fill="white"/>
</svg>
